<?xml version="1.0" standalone="no"?>
<!DOCTYPE svg PUBLIC "-//W3C//DTD SVG 20010904//EN"
 "http://www.w3.org/TR/2001/REC-SVG-20010904/DTD/svg10.dtd">
<svg version="1.0" xmlns="http://www.w3.org/2000/svg"
 width="112.000000pt" height="112.000000pt" viewBox="0 0 112.000000 112.000000"
 preserveAspectRatio="xMidYMid meet">

<g transform="translate(0.000000,112.000000) scale(0.100000,-0.100000)"
fill="#000000" stroke="none">
<path d="M387 1036 c-83 -25 -71 -15 -249 -188 -21 -21 -38 -42 -38 -49 0 -14
84 -141 104 -158 16 -14 46 -4 46 15 0 8 5 14 10 14 15 0 5 -51 -80 -405 -19
-79 -19 -80 1 -101 26 -28 106 -71 166 -89 65 -20 249 -20 318 0 44 13 54 20
58 43 4 15 24 115 46 222 22 107 43 206 47 220 l6 25 18 -25 18 -24 81 59 c81
58 92 76 71 113 -5 9 -27 55 -49 102 -41 92 -46 97 -135 158 l-59 41 -29 -24
c-35 -30 -101 -40 -158 -25 -46 12 -100 58 -100 84 0 20 2 20 -93 -8z"/>
</g>
</svg>
